# xmcd
#
# Track frame offsets:
#	150
#	17112
#	38142
#	52387
#	68572
#	83542
#	120882
#	139670
#	163159
#
# Disc length: 2438 seconds
#
# Revision: 3
# Processed by: cddbd v1.5.2PL0 Copyright (c) Steve Scherf et al.
# Submitted via: EasyCDDAExtractor 16.0.9.1
#
DISCID=6f098409
DTITLE=Electric Flag - Live 
DYEAR=1900
DGENRE=Blues
TTITLE0=Spotlight
TTITLE1=I Was Robbed Last Night
TTITLE2=I Found Out
TTITLE3=Never Be Lonely Again
TTITLE4=Losing Game
TTITLE5=My Baby Wants To Test Me
TTITLE6=I Should Have Left Her
TTITLE7=You Don't Realise
TTITLE8=Groovin' Is Easy
EXTD=
EXTT0=
EXTT1=
EXTT2=
EXTT3=
EXTT4=
EXTT5=
EXTT6=
EXTT7=
EXTT8=
PLAYORDER=
